<svg width="400" height="250" viewBox="0 0 400 250" xmlns="http://www.w3.org/2000/svg">
  <style>
    <![CDATA[
      .line {
        stroke: #666;
        stroke-width: 1;
      }
      .page-outline {
        fill: none;
        stroke: #333;
        stroke-width: 2;
      }
      .divider {
        stroke: #999;
        stroke-width: 1.5;
      }
    ]]>
  </style>

  <!-- Book border -->
  <rect x="0" y="0" width="400" height="250" class="page-outline"/>

  <!-- Divider between pages -->
  <line x1="200" y1="0" x2="200" y2="250" class="divider"/>

  <!-- Left page with lines -->
  <rect x="0" y="0" width="200" height="250" fill="#fffefc" stroke="#aaa" stroke-width="1"/>
  <g>
    <!-- 12 lines, spaced every 20px from y=20 -->
    <line class="line" x1="20" y1="20" x2="180" y2="20"/>
    <line class="line" x1="20" y1="40" x2="180" y2="40"/>
    <line class="line" x1="20" y1="60" x2="180" y2="60"/>
    <line class="line" x1="20" y1="80" x2="180" y2="80"/>
    <line class="line" x1="20" y1="100" x2="180" y2="100"/>
    <line class="line" x1="20" y1="120" x2="180" y2="120"/>
    <line class="line" x1="20" y1="140" x2="180" y2="140"/>
    <line class="line" x1="20" y1="160" x2="180" y2="160"/>
    <line class="line" x1="20" y1="180" x2="180" y2="180"/>
    <line class="line" x1="20" y1="200" x2="180" y2="200"/>
    <line class="line" x1="20" y1="220" x2="180" y2="220"/>
    <line class="line" x1="20" y1="240" x2="180" y2="240"/>
  </g>

  <!-- Right page with lines -->
  <rect x="200" y="0" width="200" height="250" fill="#fffefc" stroke="#aaa" stroke-width="1"/>
  <g>
    <line class="line" x1="220" y1="20" x2="380" y2="20"/>
    <line class="line" x1="220" y1="40" x2="380" y2="40"/>
    <line class="line" x1="220" y1="60" x2="380" y2="60"/>
    <line class="line" x1="220" y1="80" x2="380" y2="80"/>
    <line class="line" x1="220" y1="100" x2="380" y2="100"/>
    <line class="line" x1="220" y1="120" x2="380" y2="120"/>
    <line class="line" x1="220" y1="140" x2="380" y2="140"/>
    <line class="line" x1="220" y1="160" x2="380" y2="160"/>
    <line class="line" x1="220" y1="180" x2="380" y2="180"/>
    <line class="line" x1="220" y1="200" x2="380" y2="200"/>
    <line class="line" x1="220" y1="220" x2="380" y2="220"/>
    <line class="line" x1="220" y1="240" x2="380" y2="240"/>
  </g>
</svg>
